<?xml version="1.0" encoding="UTF-8" standalone="no"?>
<svg
   xmlns:dc="http://purl.org/dc/elements/1.1/"
   xmlns:cc="http://creativecommons.org/ns#"
   xmlns:rdf="http://www.w3.org/1999/02/22-rdf-syntax-ns#"
   xmlns:svg="http://www.w3.org/2000/svg"
   xmlns="http://www.w3.org/2000/svg"
   version="1.1"
   width="147"
   height="46"
   viewBox="0 0 147 46"
   id="svg3078">
  <defs
     id="defs3080" />
  <metadata
     id="metadata3084">
    <rdf:RDF>
      <cc:Work
         rdf:about="">
        <dc:format>image/svg+xml</dc:format>
        <dc:type
           rdf:resource="http://purl.org/dc/dcmitype/StillImage" />
        <dc:title></dc:title>
      </cc:Work>
    </rdf:RDF>
  </metadata>
  <g
     transform="matrix(0.63345686,0,0,0.63345686,-146.3468,-196.48003)"
     id="layer1"
     style="fill:#221c1c">
    <path
       d="m 264.4912,349.49811 c 0.23875,0.4825 -0.0835,0.72225 -0.40138,0.96638 -1.9335,1.36712 -6.4345,3.05225 -12.7925,3.05225 -11.42085,0 -20.2685,-7.71975 -20.2685,-21.15238 0,-13.9165 9.49268,-21.959 21.55763,-21.959 5.7075,0 9.49212,1.69 11.09862,2.73538 0.40475,0.23825 0.32225,0.48337 0.16113,0.88325 l -1.44488,3.05662 c -0.16112,0.32238 -0.32275,0.4 -0.7275,0.24375 -1.36225,-0.64412 -4.50237,-2.25487 -9.08737,-2.25487 -9.24757,0 -15.92774,6.35737 -15.92774,16.811 0,10.3765 5.87401,16.97262 15.20024,16.97262 5.47362,0 9.00875,-1.85012 10.21962,-2.57275 0.4005,-0.23975 0.80525,-0.16112 1.0455,0.32125 l 1.36713,2.8965"
       id="path3040"
       style="fill:#ffffff;fill-opacity:1;fill-rule:nonzero;stroke:none" />
    <path
       d="m 295.78032,311.85161 0,2.9 c 0,0.5615 -0.32275,0.72263 -0.80125,0.72263 l -17.378,0 0,13.35012 15.85013,0 c 0.4775,0 0.80025,0.16113 0.80025,0.72263 l 0,2.89987 c 0,0.561 -0.32275,0.72213 -0.80025,0.72213 l -15.85013,0 0,15.12262 17.8565,0 c 0.48388,0 0.80613,0.16163 0.80613,0.72263 l 0,2.9785 c 0,0.5615 -0.32225,0.72275 -0.80613,0.72275 l -22.52,0 c -0.4825,0 -0.80525,-0.16125 -0.80525,-0.72275 l 0,-40.14113 c 0,-0.5625 0.32275,-0.72362 0.80525,-0.72362 l 22.0415,0 c 0.4785,0 0.80125,0.16112 0.80125,0.72362"
       id="path3042"
       style="fill:#ffffff;fill-opacity:1;fill-rule:nonzero;stroke:none" />
    <path
       d="m 314.60257,315.31311 -4.0225,0 0,15.19963 1.92875,0 c 7.08,0 13.59375,-0.39988 13.59375,-7.80225 0,-7.23625 -6.3525,-7.39738 -11.5,-7.39738 z m 15.11763,37.40238 c -0.40038,0 -0.72263,0 -1.20113,-0.88388 l -6.59675,-12.23087 c -2.09462,-3.7755 -3.70112,-4.82525 -6.997,-4.82525 l -4.34525,0 0,17.13375 c 0,0.48387 -0.16112,0.80625 -0.72362,0.80625 l -4.1015,0 c -0.566,0 -0.72225,-0.32238 -0.72225,-0.80625 l 0,-40.05763 c 0,-0.5625 0.31737,-0.72362 0.80125,-0.72362 l 7.88487,0 c 4.6635,0 10.9375,-0.16013 14.71775,3.30125 2.81738,2.57375 3.21725,5.70762 3.21725,7.96387 0,6.191 -3.94,9.731 -9.331,10.9375 1.851,0.80138 3.54,2.81738 5.06825,5.7085 l 6.99763,12.87013 c 0.40524,0.72362 0.0825,0.80625 -0.23975,0.80625 l -4.42875,0"
       id="path3044"
       style="fill:#ffffff;fill-opacity:1;fill-rule:nonzero;stroke:none" />
    <path
       d="m 354.7402,315.47424 0,36.435 c 0,0.48387 -0.16163,0.80625 -0.72263,0.80625 l -4.1025,0 c -0.56637,0 -0.7275,-0.32238 -0.7275,-0.80625 l 0,-36.435 -12.06013,0 c -0.48337,0 -0.80612,-0.16113 -0.80612,-0.72263 l 0,-2.9 c 0,-0.5625 0.32275,-0.72362 0.80612,-0.72362 l 29.75638,0 c 0.4825,0 0.805,0.16112 0.805,0.72362 l 0,2.9 c 0,0.5615 -0.3225,0.72263 -0.805,0.72263 l -12.14363,0"
       id="path3046"
       style="fill:#ffffff;fill-opacity:1;fill-rule:nonzero;stroke:none" />
    <path
       d="m 403.56757,348.45324 1.52875,-2.57425 c 0.23875,-0.32225 0.56125,-0.40475 0.96125,-0.16113 1.52875,0.88375 5.06875,3.29638 9.815,3.29638 6.83625,0 8.8475,-3.61863 8.8475,-7.24125 0,-9.97113 -20.43,-6.43013 -20.43,-20.50725 0,-6.3525 5.39125,-10.86038 13.51125,-10.86038 6.3575,0 9.975,2.2515 11.42625,3.4575 0.4775,0.40525 0.4775,0.72763 0.16125,1.20663 l -1.45125,2.25487 c -0.4825,0.80125 -1.045,0.31738 -1.36625,0.15625 -1.52875,-0.9615 -4.42375,-2.729 -8.77,-2.729 -5.23,0 -8.28625,2.57275 -8.28625,6.3525 0,8.84763 20.67375,5.95263 20.67375,20.02875 0,7.07525 -4.9075,12.38388 -14.0775,12.38388 -6.835,0 -11.3375,-2.73 -12.54375,-3.9415 -0.24375,-0.23875 -0.3225,-0.63863 0,-1.122"
       id="path3048"
       style="fill:#ffffff;fill-opacity:1;fill-rule:nonzero;stroke:none" />
    <path
       d="m 462.60632,311.85161 0,2.9 c 0,0.5615 -0.3225,0.72263 -0.80625,0.72263 l -17.3725,0 0,13.35012 15.845,0 c 0.4825,0 0.8,0.16113 0.8,0.72263 l 0,2.89987 c 0,0.561 -0.3175,0.72213 -0.8,0.72213 l -15.845,0 0,15.12262 17.85625,0 c 0.48375,0 0.805,0.16163 0.805,0.72263 l 0,2.9785 c 0,0.5615 -0.32125,0.72275 -0.805,0.72275 l -22.525,0 c -0.4825,0 -0.8,-0.16125 -0.8,-0.72275 l 0,-40.14113 c 0,-0.5625 0.3175,-0.72362 0.8,-0.72362 l 22.04125,0 c 0.48375,0 0.80625,0.16112 0.80625,0.72362"
       id="path3050"
       style="fill:#ffffff;fill-opacity:1;fill-rule:nonzero;stroke:none" />
    <path
       d="m 232.81153,364.45811 c -0.48388,0 -0.80663,-0.16012 -0.80663,-0.72262 l 0,-2.3335 c 0,-0.5615 0.32275,-0.72275 0.80663,-0.72275 l 132.87104,0 0,-19.0625 31.28875,0 0,19.0625 65.3125,0 c 0.48375,0 0.805,0.16125 0.805,0.72275 l 0,2.3335 c 0,0.5625 -0.32125,0.72262 -0.805,0.72262 l -65.55625,0 c -2.0125,11.18261 -15.445,18.09619 -15.445,18.09619 0,0 -13.35,-6.91358 -15.36125,-18.09619 l -133.10979,0"
       id="path3052"
       style="fill:#edac09;fill-opacity:1;fill-rule:nonzero;stroke:none" />
  </g>
</svg>
