<?xml version="1.0" encoding="UTF-8" standalone="no"?>
<svg
   xmlns:dc="http://purl.org/dc/elements/1.1/"
   xmlns:cc="http://creativecommons.org/ns#"
   xmlns:rdf="http://www.w3.org/1999/02/22-rdf-syntax-ns#"
   xmlns:svg="http://www.w3.org/2000/svg"
   xmlns="http://www.w3.org/2000/svg"
   version="1.1"
   width="148"
   height="66"
   viewBox="0 0 148 66"
   id="svg3054">
  <defs
     id="defs3056">
    <clipPath
       id="clipPath18">
      <path
         d="M 0,566.93 0,0 l 1276.27,0 0,566.93 -1276.27,0 z"
         id="path20" />
    </clipPath>
  </defs>
  <metadata
     id="metadata3059">
    <rdf:RDF>
      <cc:Work
         rdf:about="">
        <dc:format>image/svg+xml</dc:format>
        <dc:type
           rdf:resource="http://purl.org/dc/dcmitype/StillImage" />
        <dc:title></dc:title>
      </cc:Work>
    </rdf:RDF>
  </metadata>
  <g
     transform="translate(157.69475,-262.22411)"
     id="layer1">
    <g
       transform="matrix(0.11596292,0,0,-0.11596292,-157.69475,327.96697)"
       id="g12">
      <g
         id="g14">
        <g
           clip-path="url(#clipPath18)"
           id="g16">
          <path
             d="m 670.914,166.594 c 0,19.011 -7.187,26.601 -21.352,26.601 l -0.304,0 c -14.973,0 -21.953,-10.722 -21.953,-27.011 0,-19.016 7.183,-26.606 21.347,-26.606 l 0.301,0 c 14.977,0 21.961,10.727 21.961,27.016 m -11.23,-0.207 c 0,-10.117 -2.735,-17.102 -10.625,-17.102 -7.891,0 -10.524,6.684 -10.524,17.102 0,10.117 2.731,17.199 10.621,17.199 7.891,0 10.528,-6.777 10.528,-17.199 m 48.554,-14.16 c -2.832,-1.219 -5.363,-2.43 -8.906,-2.43 -4.953,0 -9.512,3.641 -9.512,16.59 0,12.843 4.356,16.797 10.125,16.797 2.93,0 5.664,-1.219 7.891,-2.43 l 2.726,9.004 c -3.437,2.019 -7.785,3.437 -12.14,3.437 -12.031,0 -19.93,-9.004 -19.93,-27.218 0,-20.43 8.094,-26.399 18.719,-26.399 5.969,0 10.312,1.82 13.762,3.84 l -2.735,8.809 z m 48.867,-11.836 0,34.797 c 0,11.738 -5.46,18.007 -13.566,18.007 -5.059,0 -8.289,-1.308 -14.363,-6.269 l 0,22.945 -11.028,0 0,-69.48 11.028,0 0,37.019 c 4.051,3.852 7.293,5.664 10.222,5.664 4.758,0 6.68,-4.949 6.68,-10.918 l 0,-31.765 11.027,0 z m 73.954,26.394 c 0,17.004 -6.278,26.41 -15.684,26.41 -4.453,0 -8.094,-1.718 -13.563,-6.269 l 0,22.945 -11.027,0 0,-69.48 8.906,0 1.211,5.761 c 5.059,-5.058 8.399,-6.679 12.344,-6.679 10.117,0 17.813,9.308 17.813,27.312 m -11.239,-0.301 c 0,-10.925 -3.535,-16.894 -8.398,-16.894 -2.727,0 -5.762,1.926 -9.61,5.871 l 0,21.949 c 3.946,3.742 7.489,5.774 10.02,5.774 5.156,0 7.988,-6.075 7.988,-16.7 m 58.075,-22.957 -2.032,7.891 c -5.457,-1.621 -11.629,-2.637 -15.476,-2.637 -7.383,0 -10.52,4.149 -10.52,14.168 l 28.633,0 c 0.195,2.324 0.305,5.352 0.305,7.481 0,14.875 -7.395,22.765 -18.821,22.765 -13.25,0 -21.347,-9.004 -21.347,-27.109 0,-18.516 5.871,-26.508 20.136,-26.508 6.27,0 12.344,1.215 19.122,3.949 m -10.02,27.918 -18.105,0 c 0.195,6.477 2.726,12.84 9.296,12.84 6.485,0 8.809,-5.457 8.809,-12.234 l 0,-0.606 z m 45.832,10.422 0,11.328 -2.227,0 c -4.042,0 -6.074,-1.015 -12.246,-7.59 l -1.007,6.68 -9.207,0 0,-51.894 11.023,0 0,35.808 c 4.25,4.043 6.477,5.668 10.519,5.668 l 3.145,0 z m 43.191,-38.34 -2.019,7.891 c -5.461,-1.621 -11.633,-2.637 -15.481,-2.637 -7.382,0 -10.527,4.149 -10.527,14.168 l 28.633,0 c 0.207,2.324 0.305,5.352 0.305,7.481 0,14.875 -7.383,22.765 -18.821,22.765 -13.25,0 -21.336,-9.004 -21.336,-27.109 0,-18.516 5.868,-26.508 20.125,-26.508 6.282,0 12.344,1.215 19.121,3.949 m -10.007,27.918 -18.118,0 c 0.207,6.477 2.735,12.84 9.309,12.84 6.473,0 8.809,-5.457 8.809,-12.234 l 0,-0.606 z m 59.179,-31.054 0,69.48 -11.027,0 0,-22.242 c -4.961,4.355 -7.898,5.566 -11.434,5.566 -10.117,0 -17.812,-9.308 -17.812,-27.316 0,-16.992 6.277,-26.406 15.683,-26.406 4.247,0 7.891,1.515 14.364,6.886 l 1.125,-5.968 9.101,0 z m -11.027,14.863 c -4.051,-3.738 -7.285,-5.664 -10.117,-5.664 -4.961,0 -7.996,5.969 -7.996,16.594 0,10.925 3.64,16.89 8.504,16.89 2.726,0 5.664,-1.922 9.609,-5.457 l 0,-22.363 z m 51.597,-0.508 c 0,6.484 -2.85,11.133 -12.05,15.988 -7.18,3.946 -8.59,5.465 -8.59,8.809 0,2.93 2.02,4.852 6.07,4.852 3.34,0 6.68,-1.415 9.71,-2.735 l 3.23,7.988 c -4.04,2.239 -8.59,3.547 -13.66,3.547 -9.7,0 -16.18,-5.968 -16.18,-14.465 0,-6.472 3.04,-11.433 11.84,-15.886 7.17,-3.946 8.4,-5.567 8.4,-8.801 0,-2.93 -1.73,-5.359 -6.78,-5.359 -3.04,0 -6.38,0.906 -10.32,3.035 l -3.44,-8.192 c 4.55,-2.636 8.8,-3.949 14.76,-3.949 10.12,0 17.01,5.461 17.01,15.168 m 47.94,-14.355 -17.09,29.336 14.36,22.558 -12.33,0 -12.55,-21.551 -0.1,0 0,39.137 -11.04,0 0,-69.48 11.04,0 0,25.793 0.1,0 14.36,-25.793 13.25,0 z m 40.78,0 0,51.894 -9.01,0 -1.11,-5.762 c -5.57,5.762 -9.31,6.672 -12.34,6.672 -10.12,0 -17.81,-9.308 -17.81,-27.316 0,-16.992 6.27,-26.406 15.68,-26.406 4.25,0 7.89,1.515 14.37,6.886 l 1.11,-5.968 9.11,0 z m -11.03,14.863 c -4.25,-3.945 -7.49,-5.664 -10.12,-5.664 -4.96,0 -7.99,5.969 -7.99,16.594 0,10.925 3.64,16.89 8.5,16.89 2.42,0 5.36,-1.519 9.61,-5.664 l 0,-22.156 z m 63.43,11.531 c 0,17.004 -6.27,26.41 -15.68,26.41 -4.25,0 -7.9,-1.515 -14.37,-6.875 l -1.11,5.965 -9.1,0 0,-70.82 11.02,-0.195 0,23.769 c 4.96,-4.246 7.79,-5.566 11.44,-5.566 10.11,0 17.8,9.308 17.8,27.312 m -11.23,-0.301 c 0,-10.925 -3.54,-16.894 -8.4,-16.894 -2.72,0 -5.76,1.926 -9.61,5.566 l 0,22.254 c 3.95,3.742 7.29,5.774 10.02,5.774 5.06,0 7.99,-6.075 7.99,-16.7"
             id="path22"
             style="fill:#ffffff;fill-opacity:1;fill-rule:nonzero;stroke:none" />
          <path
             d="m 657.965,268.566 c 0,6.473 -2.844,11.125 -12.047,15.981 -7.184,3.949 -8.598,5.465 -8.598,8.805 0,2.933 2.028,4.855 6.075,4.855 3.339,0 6.671,-1.422 9.71,-2.734 l 3.239,7.996 c -4.047,2.219 -8.606,3.539 -13.664,3.539 -9.707,0 -16.188,-5.973 -16.188,-14.469 0,-6.473 3.039,-11.43 11.844,-15.883 7.176,-3.945 8.398,-5.562 8.398,-8.804 0,-2.93 -1.722,-5.36 -6.785,-5.36 -3.031,0 -6.371,0.914 -10.316,3.035 l -3.442,-8.191 c 4.555,-2.629 8.805,-3.945 14.77,-3.945 10.117,0 17.004,5.457 17.004,15.175 m 46.836,-14.367 0,51.895 -9.004,0 -1.113,-5.762 c -5.567,5.762 -9.309,6.676 -12.344,6.676 -10.11,0 -17.805,-9.309 -17.805,-27.317 0,-16.996 6.27,-26.398 15.676,-26.398 4.258,0 7.898,1.512 14.375,6.875 l 1.102,-5.969 9.113,0 z m -11.028,14.863 c -4.257,-3.933 -7.488,-5.656 -10.117,-5.656 -4.961,0 -7.996,5.969 -7.996,16.59 0,10.926 3.641,16.895 8.504,16.895 2.422,0 5.352,-1.52 9.609,-5.664 l 0,-22.165 z m 89.219,-14.863 0,34.801 c 0,11.734 -5.254,18.008 -13.347,18.008 -5.059,0 -8.293,-1.215 -16.086,-7.391 -2.129,4.457 -5.965,7.391 -11.329,7.391 -4.96,0 -8.398,-1.32 -15.078,-6.879 l -1.113,5.965 -9.101,0 0,-51.895 11.027,0 0,37.028 c 4.043,3.843 7.285,5.664 10.117,5.664 4.754,0 6.473,-4.957 6.473,-10.93 l 0,-31.762 10.832,0 0,37.028 c 4.043,3.843 7.175,5.664 10.105,5.664 4.66,0 6.477,-4.957 6.477,-10.93 l 0,-31.762 11.023,0 z m 101.172,0 0,51.895 -9.004,0 -1.113,-5.762 c -5.567,5.762 -9.305,6.676 -12.344,6.676 -10.117,0 -17.801,-9.309 -17.801,-27.317 0,-16.996 6.27,-26.398 15.672,-26.398 4.258,0 7.903,1.512 14.375,6.875 l 1.113,-5.969 9.102,0 z m -11.023,14.863 c -4.25,-3.933 -7.493,-5.656 -10.118,-5.656 -4.961,0 -7.988,5.969 -7.988,16.59 0,10.926 3.633,16.895 8.496,16.895 2.422,0 5.36,-1.52 9.61,-5.664 l 0,-22.165 z m 34.187,-14.863 0,69.485 -11.023,0.004 0,-69.489 11.023,0 z m 23.164,0 0,69.485 -11.023,0.004 0,-69.489 11.023,0 z m 40.469,14.367 c 0,6.473 -2.832,11.125 -12.039,15.981 -7.18,3.949 -8.594,5.465 -8.594,8.805 0,2.933 2.02,4.855 6.063,4.855 3.339,0 6.679,-1.422 9.718,-2.734 l 3.231,7.996 c -4.043,2.219 -8.594,3.539 -13.652,3.539 -9.715,0 -16.192,-5.973 -16.192,-14.469 0,-6.473 3.039,-11.43 11.836,-15.883 7.188,-3.945 8.398,-5.562 8.398,-8.804 0,-2.93 -1.718,-5.36 -6.777,-5.36 -3.035,0 -6.367,0.914 -10.32,3.035 l -3.438,-8.191 c 4.551,-2.629 8.797,-3.945 14.774,-3.945 10.117,0 16.992,5.457 16.992,15.175 m 37.029,0 c 0,6.473 -2.84,11.125 -12.037,15.981 -7.187,3.949 -8.605,5.465 -8.605,8.805 0,2.933 2.023,4.855 6.074,4.855 3.332,0 6.678,-1.422 9.708,-2.734 l 3.24,7.996 c -4.05,2.219 -8.6,3.539 -13.659,3.539 -9.707,0 -16.184,-5.973 -16.184,-14.469 0,-6.473 3.028,-11.43 11.836,-15.883 7.18,-3.945 8.391,-5.562 8.391,-8.804 0,-2.93 -1.719,-5.36 -6.777,-5.36 -3.028,0 -6.368,0.914 -10.313,3.035 l -3.449,-8.191 c 4.562,-2.629 8.808,-3.945 14.777,-3.945 10.118,0 16.998,5.457 16.998,15.175 m 47.95,-14.367 -17.1,29.336 14.37,22.559 -12.35,0 -12.53,-21.547 -0.11,0 0,39.137 -11.03,0.004 0,-69.489 11.03,0 0,25.797 0.11,0 14.36,-25.797 13.25,0 z m 41.88,51.895 -11.83,0 -6.47,-28.93 -2.13,-11.539 -0.1,0 -1.72,9.516 -7.69,30.953 -12.25,0 14.68,-52.5 c -2.02,-5.059 -6.27,-7.996 -10.53,-10.117 l 4.86,-8.204 c 10.52,4.766 18,12.754 21.65,26.817 l 11.53,44.004 z m 43.31,-51.895 0,69.485 -11.04,0.004 0,-22.243 c -4.95,4.348 -7.89,5.563 -11.43,5.563 -10.11,0 -17.8,-9.309 -17.8,-27.317 0,-16.996 6.26,-26.398 15.69,-26.398 4.24,0 7.88,1.512 14.35,6.875 l 1.12,-5.969 9.11,0 z m -11.04,14.863 c -4.04,-3.738 -7.28,-5.656 -10.1,-5.656 -4.97,0 -8,5.969 -8,16.59 0,10.926 3.64,16.895 8.49,16.895 2.74,0 5.67,-1.918 9.61,-5.465 l 0,-22.364 z m 61.31,-14.863 0,69.485 -11.02,0.004 0,-22.243 c -4.96,4.348 -7.89,5.563 -11.43,5.563 -10.13,0 -17.81,-9.309 -17.81,-27.317 0,-16.996 6.27,-26.398 15.68,-26.398 4.25,0 7.89,1.512 14.37,6.875 l 1.11,-5.969 9.1,0 z m -11.02,14.863 c -4.05,-3.738 -7.29,-5.656 -10.12,-5.656 -4.95,0 -8,5.969 -8,16.59 0,10.926 3.64,16.895 8.51,16.895 2.73,0 5.66,-1.918 9.61,-5.465 l 0,-22.364"
             id="path24"
             style="fill:#ffffff;fill-opacity:1;fill-rule:nonzero;stroke:none" />
          <path
             d="m 697.621,368.008 -4.863,68.187 -15.985,0 -13.554,-47.246 -0.098,0 -13.762,47.246 -16.691,0 -4.856,-68.187 10.922,0 3.45,54.23 0.097,0 15.477,-54.23 9.512,0 15.48,54.23 0.098,0 3.437,-54.23 11.336,0 z m 46.231,51.898 -11.836,0 -6.473,-28.929 -2.129,-11.532 -0.098,0 -1.718,9.504 -7.696,30.957 -12.238,0 14.668,-52.504 c -2.02,-5.058 -6.27,-7.988 -10.527,-10.117 l 4.863,-8.191 c 10.52,4.754 18.008,12.742 21.652,26.808 l 11.532,44.004 z m 45.312,-51.898 0,34.804 c 0,11.735 -5.457,18.008 -13.543,18.008 -5.07,0 -8.508,-1.316 -15.176,-6.879 l -1.113,5.965 -9.113,0 0,-51.898 11.035,0 0,37.031 c 4.043,3.844 7.277,5.664 10.215,5.664 4.758,0 6.679,-4.961 6.679,-10.926 l 0,-31.769 11.016,0 z m 73.352,51.898 -11.028,0 0,-51.898 11.028,0 0,51.898 z m 50.175,-49.972 0,49.972 -8.996,0 -1.113,-5.765 c -5.273,5.257 -8.699,6.679 -12.344,6.679 -10.117,0 -17.812,-9.312 -17.812,-27.215 0,-16.793 6.281,-26.3 15.683,-26.3 4.453,0 8.098,1.617 13.555,6.269 l 0,-5.258 c 0,-6.273 -1.922,-10.425 -11.629,-10.425 l -11.133,0 1.524,-8.09 c 3.23,-0.504 7.586,-0.707 11.933,-0.707 11.024,0 20.332,5.058 20.332,20.84 m -11.027,13.152 c -4.043,-3.848 -7.383,-5.766 -10.117,-5.766 -4.949,0 -7.996,6.071 -7.996,16.59 0,10.82 3.64,16.793 8.504,16.793 2.734,0 5.664,-1.922 9.609,-5.664 l 0,-21.953 z m 62.121,-15.078 0,34.804 c 0,11.735 -5.469,18.008 -13.566,18.008 -5.059,0 -8.289,-1.316 -14.356,-6.273 l 0,22.953 -11.035,0 0,-69.492 11.035,0 0,37.031 c 4.043,3.844 7.278,5.664 10.215,5.664 4.746,0 6.672,-4.961 6.672,-10.926 l 0,-31.769 11.035,0 z m 48.955,3.14 -2.01,7.891 c -5.47,-1.617 -11.644,-2.633 -15.492,-2.633 -7.383,0 -10.515,4.153 -10.515,14.164 l 28.627,0 c 0.2,2.332 0.31,5.364 0.31,7.489 0,14.871 -7.39,22.761 -18.82,22.761 -13.254,0 -21.348,-9.004 -21.348,-27.113 0,-18.516 5.867,-26.504 20.125,-26.504 6.281,0 12.343,1.211 19.123,3.945 m -10.01,27.918 -18.105,0 c 0.195,6.477 2.723,12.852 9.305,12.852 6.48,0 8.8,-5.469 8.8,-12.238 l 0,-0.614 z m 42.89,-30.343 -0.7,8.496 c -1.93,-0.305 -3.65,-0.508 -4.96,-0.508 -3.74,0 -4.65,1.316 -4.65,5.461 l 0,29.039 10.31,0 0,8.695 -10.31,0 0,16.289 -10.93,-1.621 0,-14.668 -7.08,0 0,-8.695 7.08,0 0,-30.961 c 0,-10.52 4.96,-13.047 11.33,-13.047 3.44,0 7.19,0.707 9.91,1.52 m 45.32,2.425 -2.02,7.891 c -5.46,-1.617 -11.63,-2.633 -15.48,-2.633 -7.38,0 -10.52,4.153 -10.52,14.164 l 28.63,0 c 0.2,2.332 0.31,5.364 0.31,7.489 0,14.871 -7.38,22.761 -18.82,22.761 -13.25,0 -21.35,-9.004 -21.35,-27.113 0,-18.516 5.87,-26.504 20.13,-26.504 6.28,0 12.35,1.211 19.12,3.945 m -10.01,27.918 -18.11,0 c 0.2,6.477 2.73,12.852 9.3,12.852 6.48,0 8.81,-5.469 8.81,-12.238 l 0,-0.614 z m 60.09,-31.058 0,34.804 c 0,11.735 -5.46,18.008 -13.55,18.008 -5.06,0 -8.5,-1.316 -15.18,-6.879 l -1.11,5.965 -9.1,0 0,-51.898 11.02,0 0,37.031 c 4.04,3.844 7.29,5.664 10.23,5.664 4.74,0 6.67,-4.961 6.67,-10.926 l 0,-31.769 11.02,0 z m 56.46,72.844 c -2.23,0.601 -4.36,0.808 -7.08,0.808 -10.12,0 -14.68,-5.359 -14.68,-15.781 l 0,-5.973 -7.08,0 0,-8.695 7.08,0 0,-43.203 10.93,0 0,43.203 8.8,0 0,8.695 -8.8,0 0,5.973 c 0,4.758 1.41,7.183 5.66,7.183 1.42,0 3.24,-0.207 4.45,-0.41 l 0.72,8.2 z m 44.3,-46.637 c 0,19.019 -7.19,26.605 -21.35,26.605 l -0.3,0 c -14.97,0 -21.95,-10.726 -21.95,-27.011 0,-19.024 7.19,-26.606 21.35,-26.606 l 0.3,0 c 14.97,0 21.95,10.719 21.95,27.012 m -11.23,-0.207 c 0,-10.117 -2.73,-17.094 -10.62,-17.094 -7.89,0 -10.52,6.676 -10.52,17.094 0,10.117 2.73,17.203 10.62,17.203 7.89,0 10.52,-6.777 10.52,-17.203 m 45.72,15.48 0,11.332 -2.22,0 c -4.05,0 -6.07,-1.015 -12.24,-7.586 l -1.01,6.672 -9.2,0 0,-51.898 11.02,0 0,35.816 c 4.25,4.043 6.48,5.664 10.52,5.664 l 3.13,0"
             id="path26"
             style="fill:#ffffff;fill-opacity:1;fill-rule:nonzero;stroke:none" />
          <path
             d="m 828.219,382.883 c -4.043,-3.742 -7.285,-5.664 -10.117,-5.664 -4.954,0 -7.989,5.965 -7.989,16.59 0,10.921 3.641,16.894 8.496,16.894 2.735,0 5.664,-1.922 9.61,-5.465 l 0,-22.355 z m 0,54.617 0,-22.246 c -4.953,4.351 -7.891,5.566 -11.426,5.566 -10.117,0 -17.813,-9.312 -17.813,-27.312 0,-17 6.278,-26.406 15.684,-26.406 4.246,0 7.891,1.515 14.363,6.878 l 1.114,-5.972 9.101,0 0,69.492 -11.023,0"
             id="path28"
             style="fill:#ffffff;fill-opacity:1;fill-rule:nonzero;stroke:none" />
          <path
             d="m 851.488,426.168 11.0273,0 0,11.332 -11.0273,0 0,-11.332 z"
             id="path30"
             style="fill:#ffffff;fill-opacity:1;fill-rule:nonzero;stroke:none" />
          <path
             d="m 1206.07,427.074 9.3086,0 0,10.4258 -9.3086,0 0,-10.4258 z"
             id="path32"
             style="fill:#ffffff;fill-opacity:1;fill-rule:nonzero;stroke:none" />
          <path
             d="m 1224.68,427.074 9.3086,0 0,10.4258 -9.3086,0 0,-10.4258 z"
             id="path34"
             style="fill:#ffffff;fill-opacity:1;fill-rule:nonzero;stroke:none" />
          <path
             d="m 852.211,313.266 9.29688,0 0,10.4219 -9.29688,0 0,-10.4219 z"
             id="path36"
             style="fill:#ffffff;fill-opacity:1;fill-rule:nonzero;stroke:none" />
          <path
             d="m 870.824,313.266 9.29688,0 0,10.4219 -9.29688,0 0,-10.4219 z"
             id="path38"
             style="fill:#ffffff;fill-opacity:1;fill-rule:nonzero;stroke:none" />
          <path
             d="m 834.086,254.199 0,34.801 c 0,11.734 -5.457,18.008 -13.555,18.008 -5.058,0 -8.301,-1.32 -14.363,-6.274 l 0,22.95 -11.027,0.004 0,-69.489 11.027,0 0,37.028 c 4.043,3.843 7.285,5.664 10.215,5.664 4.754,0 6.679,-4.957 6.679,-10.93 l 0,-31.762 11.024,0"
             id="path40"
             style="fill:#ffffff;fill-opacity:1;fill-rule:nonzero;stroke:none" />
          <path
             d="m 553.09,297.297 -69.184,-69.18 0,27.664 55.336,55.352 -13.832,13.844 -41.504,-41.516 0,27.676 27.672,27.675 -13.84,13.836 -13.832,-13.836 0,48.219 -10.273,-10.273 -13.844,13.847 24.117,24.114 0,27.668 -37.949,-37.942 -13.844,13.836 51.793,51.789 0,13.836 -13.84,0 -51.789,-51.789 -13.839,13.836 37.957,37.953 -27.676,0 -24.114,-24.117 -13.835,13.84 10.273,10.277 -48.227,0 13.84,13.84 -13.84,13.836 -27.668,-27.676 -27.679,0 41.508,41.516 -13.832,13.836 -55.356,-55.352 -27.676,0 69.192,69.184 -13.836,13.84 L 0,283.461 l 13.8398,-13.844 69.1836,69.195 0,-27.675 -55.3437,-55.344 13.8359,-13.84 41.5078,41.504 0,-27.676 -27.6718,-27.664 13.8398,-13.84 13.832,13.84 0,-48.215 10.2735,10.274 13.8441,-13.848 -24.1176,-24.109 0,-27.676 37.9496,37.949 13.839,-13.84 -51.7886,-51.7848 0,-13.8399 13.8399,0 51.7887,51.7887 13.836,-13.839 -37.953,-37.9497 27.676,0 24.113,24.1137 13.84,-13.8402 -10.277,-10.2735 48.222,0 -13.836,-13.8359 13.836,-13.8398 27.676,27.6757 27.684,0 -41.516,-41.5117 13.836,-13.8398 55.356,55.3515 27.667,0 L 269.629,13.8398 283.469,0 566.926,283.457 553.09,297.297 z m -69.297,-214.2111 0.078,34.0701 -34.113,-34.0701 34.035,0 z m -61.715,0 61.688,61.6411 0,27.675 -89.364,-89.3161 27.676,0 z M 82.9453,483.906 l -0.0742,-34.078 34.1169,34.078 -34.0427,0 z m 89.3947,0 -89.3673,-89.316 0,27.672 61.6833,61.644 27.684,0"
             id="path42"
             style="fill:#ee1c24;fill-opacity:1;fill-rule:nonzero;stroke:none" />
          <path
             d="m 462.156,257.258 c 0,-24.192 -16.187,-34.141 -40.07,-34.141 l -62.66,0 0,120.688 59.136,0 c 20.993,0 39.899,-9.614 39.899,-33.977 0,-13.629 -7.199,-21.312 -19.231,-24.844 13.95,-3.363 22.926,-11.535 22.926,-27.726 m -44.558,37.023 c 11.07,0 18.277,4.004 18.277,15.703 0,11.383 -8.02,14.59 -18.437,14.59 l -36.7,0 0,-30.293 36.86,0 z m 3.214,-51.926 c 10.247,0 18.743,4.493 18.743,15.868 0,11.379 -7.367,16.832 -18.262,16.832 l -40.555,0 0,-32.7 40.074,0"
             id="path44"
             style="fill:#ffffff;fill-opacity:1;fill-rule:nonzero;stroke:none" />
          <path
             d="m 296.988,295.723 c -21.32,3.363 -31.258,4.488 -31.258,16.347 0,9.942 7.208,14.75 25,14.75 17.153,0 26.926,-7.855 32.856,-19.23 l 15.887,15.887 c -8.852,14.117 -24.301,22.414 -48.582,22.414 -30.614,0 -46.953,-14.11 -46.953,-35.098 0,-26.773 20.667,-32.051 44.707,-36.063 24.046,-4.007 33.82,-6.253 33.82,-18.753 0,-10.575 -9.137,-15.379 -26.445,-15.379 -21.313,0 -29.969,8.007 -35.903,21.148 l -16.738,-16.734 c 8.07,-14.758 25.121,-23.977 51.519,-23.977 30.137,0 50.321,9.942 50.321,34.942 0,27.89 -19.391,35.101 -48.231,39.746"
             id="path46"
             style="fill:#ffffff;fill-opacity:1;fill-rule:nonzero;stroke:none" />
          <path
             d="m 168.734,313.359 -30.453,30.446 -30.449,0 0,-120.688 19.707,0 0,97.309 40.152,-40.153 40.145,40.153 0,-97.309 20.996,0 0,120.688 -29.652,0 -30.446,-30.446"
             id="path48"
             style="fill:#ffffff;fill-opacity:1;fill-rule:nonzero;stroke:none" />
        </g>
      </g>
    </g>
  </g>
</svg>
